<svg width="75" height="75" viewBox="0 0 75 75" fill="none" xmlns="http://www.w3.org/2000/svg">
<mask id="mask0_8_124" style="mask-type:alpha" maskUnits="userSpaceOnUse" x="9" y="9" width="57" height="66">
<path d="M44.3182 48.3781V53.3038H45.4545C56.7513 53.3038 65.9091 61.9383 65.9091 72.5895V75.0002H9.09088V72.5895C9.09088 61.9383 18.2487 53.3038 29.5454 53.3038H30.6818V48.3781C25.7848 46.1848 22.2648 41.7021 21.6776 36.397C20.0228 36.1764 18.75 34.8356 18.75 33.2145V29.4645C18.75 27.8718 19.9785 26.5497 21.5909 26.2947V24.6431C21.5909 16.3588 28.7136 9.64307 37.5 9.64307C46.2863 9.64307 53.4091 16.3588 53.4091 24.6431V26.2947C55.0214 26.5497 56.25 27.8718 56.25 29.4645V33.2145C56.25 34.8356 54.9772 36.1764 53.3224 36.397C52.7351 41.7021 49.2151 46.1848 44.3182 48.3781Z" fill="white"/>
</mask>
<g mask="url(#mask0_8_124)">
<path d="M44.3182 48.3781V53.3038H45.4545C56.7513 53.3038 65.9091 61.9383 65.9091 72.5895V75.0002H9.09088V72.5895C9.09088 61.9383 18.2487 53.3038 29.5454 53.3038H30.6818V48.3781C25.7848 46.1848 22.2648 41.7021 21.6776 36.397C20.0228 36.1764 18.75 34.8356 18.75 33.2145V29.4645C18.75 27.8718 19.9785 26.5497 21.5909 26.2947V24.6431C21.5909 16.3588 28.7136 9.64307 37.5 9.64307C46.2863 9.64307 53.4091 16.3588 53.4091 24.6431V26.2947C55.0214 26.5497 56.25 27.8718 56.25 29.4645V33.2145C56.25 34.8356 54.9772 36.1764 53.3224 36.397C52.7351 41.7021 49.2151 46.1848 44.3182 48.3781Z" fill="#D0C6AC"/>
<path d="M84.0909 9.64307H9.09088V84.6431H84.0909V9.64307Z" fill="#EDB98A"/>
<path fill-rule="evenodd" clip-rule="evenodd" d="M53.4091 30.8037V36.9644C53.4091 45.2487 46.2863 51.9644 37.5 51.9644C28.7136 51.9644 21.5909 45.2487 21.5909 36.9644V30.8037V34.8216C21.5909 43.1058 28.7136 49.8216 37.5 49.8216C46.2863 49.8216 53.4091 43.1058 53.4091 34.8216V30.8037Z" fill="black" fill-opacity="0.1"/>
</g>
<mask id="mask1_8_124" style="mask-type:alpha" maskUnits="userSpaceOnUse" x="9" y="49" width="57" height="26">
<path fill-rule="evenodd" clip-rule="evenodd" d="M30.6818 49.0366C25.5913 49.5737 21.6704 51.0404 21.5921 54.8154C14.2461 57.7412 9.09088 64.5974 9.09088 72.5889V74.9998H65.9091V72.5889C65.9091 64.5974 60.7538 57.7412 53.4079 54.8154C53.3296 51.0404 49.4087 49.5737 44.3182 49.0366V54.1069C44.3182 57.6573 41.2655 60.5355 37.5 60.5355C33.7344 60.5355 30.6818 57.6573 30.6818 54.1069V49.0366Z" fill="white"/>
</mask>
<g mask="url(#mask1_8_124)">
<path fill-rule="evenodd" clip-rule="evenodd" d="M30.6818 49.0366C25.5913 49.5737 21.6704 51.0404 21.5921 54.8154C14.2461 57.7412 9.09088 64.5974 9.09088 72.5889V74.9998H65.9091V72.5889C65.9091 64.5974 60.7538 57.7412 53.4079 54.8154C53.3296 51.0404 49.4087 49.5737 44.3182 49.0366V54.1069C44.3182 57.6573 41.2655 60.5355 37.5 60.5355C33.7344 60.5355 30.6818 57.6573 30.6818 54.1069V49.0366Z" fill="#051622"/>
<path d="M75 45.5356H0V74.9999H75V45.5356Z" fill="#051622"/>
<path fill-rule="evenodd" clip-rule="evenodd" d="M28.9772 62.0726V74.9997H26.9886V61.1113C27.6147 61.4622 28.2803 61.7838 28.9772 62.0726ZM48.0113 61.1113V71.9193C48.0113 72.4371 47.5661 72.8568 47.017 72.8568C46.4678 72.8568 46.0227 72.4371 46.0227 71.9193V62.0726C46.7196 61.7838 47.3852 61.4622 48.0113 61.1113Z" fill="#DEB992"/>
<path fill-rule="evenodd" clip-rule="evenodd" d="M25.8409 48.9438C21.5651 49.7064 18.6079 51.2256 18.6079 54.1894C18.6079 59.4695 27.9936 63.7498 37.5 63.7498C47.0063 63.7498 56.392 59.4695 56.392 54.1894C56.392 51.2256 53.4348 49.7064 49.159 48.9438C51.74 49.8412 53.409 51.3497 53.409 53.8597C53.409 59.3219 45.5053 63.7498 37.5 63.7498C29.4946 63.7498 21.5909 59.3219 21.5909 53.8597C21.5909 51.3497 23.2599 49.8412 25.8409 48.9438Z" fill="black" fill-opacity="0.16"/>
</g>
<mask id="mask2_8_124" style="mask-type:alpha" maskUnits="userSpaceOnUse" x="32" y="39" width="11" height="6">
<path fill-rule="evenodd" clip-rule="evenodd" d="M32.1357 39.945C32.4363 42.4874 34.7233 44.4643 37.5 44.4643C40.2853 44.4643 42.5778 42.4752 42.867 39.9214C42.8902 39.7159 42.6468 39.375 42.3417 39.375C38.1104 39.375 34.8687 39.375 32.6951 39.375C32.3882 39.375 32.1057 39.6907 32.1357 39.945Z" fill="white"/>
</mask>
<g mask="url(#mask2_8_124)">
<path fill-rule="evenodd" clip-rule="evenodd" d="M32.1357 39.945C32.4363 42.4874 34.7233 44.4643 37.5 44.4643C40.2853 44.4643 42.5778 42.4752 42.867 39.9214C42.8902 39.7159 42.6468 39.375 42.3417 39.375C38.1104 39.375 34.8687 39.375 32.6951 39.375C32.3882 39.375 32.1057 39.6907 32.1357 39.945Z" fill="black" fill-opacity="0.7"/>
<path d="M40.625 36.4287H34.6591C33.8746 36.4287 33.2386 37.0283 33.2386 37.768V39.3751C33.2386 40.1148 33.8746 40.7144 34.6591 40.7144H40.625C41.4095 40.7144 42.0455 40.1148 42.0455 39.3751V37.768C42.0455 37.0283 41.4095 36.4287 40.625 36.4287Z" fill="white"/>
<path d="M36.0795 48.2141C37.8054 48.2141 39.2045 46.895 39.2045 45.2677C39.2045 43.6405 37.8054 42.3213 36.0795 42.3213C34.3536 42.3213 32.9545 43.6405 32.9545 45.2677C32.9545 46.895 34.3536 48.2141 36.0795 48.2141Z" fill="#FF4F6D"/>
<path d="M38.9204 48.2141C40.6463 48.2141 42.0454 46.895 42.0454 45.2677C42.0454 43.6405 40.6463 42.3213 38.9204 42.3213C37.1945 42.3213 35.7954 43.6405 35.7954 45.2677C35.7954 46.895 37.1945 48.2141 38.9204 48.2141Z" fill="#FF4F6D"/>
</g>
<path fill-rule="evenodd" clip-rule="evenodd" d="M34.0909 34.8218C34.0909 36.0052 35.6172 36.9646 37.5 36.9646C39.3828 36.9646 40.9091 36.0052 40.9091 34.8218" fill="black" fill-opacity="0.16"/>
<path d="M30.1137 31.6074C31.0551 31.6074 31.8182 30.8878 31.8182 30.0002C31.8182 29.1126 31.0551 28.3931 30.1137 28.3931C29.1723 28.3931 28.4091 29.1126 28.4091 30.0002C28.4091 30.8878 29.1723 31.6074 30.1137 31.6074Z" fill="black" fill-opacity="0.6"/>
<path fill-rule="evenodd" clip-rule="evenodd" d="M41.6505 30.7915C42.0985 29.742 43.2243 28.9566 44.594 28.8663C45.9589 28.7763 47.1858 29.4016 47.7867 30.3762C47.9652 30.6657 47.761 30.9257 47.5233 30.7587C46.7869 30.2414 45.7743 29.9548 44.6801 30.027C43.6201 30.0969 42.6857 30.4901 42.0347 31.0681C41.7967 31.2794 41.5194 31.0985 41.6505 30.7915Z" fill="black" fill-opacity="0.6"/>
<path fill-rule="evenodd" clip-rule="evenodd" d="M29.1328 23.6114C27.4831 23.6832 24.816 24.8135 24.8847 26.382C24.887 26.4334 24.967 26.4559 25.006 26.4164C25.7887 25.6237 31.3456 24.8227 33.3029 25.2472C33.482 25.2861 33.6181 25.1195 33.5047 24.9991C32.5325 23.9683 30.6108 23.5456 29.1328 23.6114Z" fill="black" fill-opacity="0.6"/>
<path fill-rule="evenodd" clip-rule="evenodd" d="M46.1513 23.6114C47.801 23.6832 50.4681 24.8135 50.3994 26.382C50.3971 26.4334 50.3172 26.4559 50.2781 26.4164C49.4954 25.6237 43.9385 24.8227 41.9812 25.2472C41.8021 25.2861 41.666 25.1195 41.7795 24.9991C42.7516 23.9683 44.6733 23.5456 46.1513 23.6114Z" fill="black" fill-opacity="0.6"/>
<mask id="mask3_8_124" style="mask-type:alpha" maskUnits="userSpaceOnUse" x="0" y="0" width="75" height="75">
<path d="M75 0H0V75H75V0Z" fill="white"/>
</mask>
<g mask="url(#mask3_8_124)">
<mask id="mask4_8_124" style="mask-type:alpha" maskUnits="userSpaceOnUse" x="21" y="26" width="33" height="25">
<path fill-rule="evenodd" clip-rule="evenodd" d="M42.4513 45.5809C41.7372 46.1953 40.9765 46.4717 40.015 46.2784C39.8496 46.2452 39.1751 45.0628 37.5 45.0628C35.8248 45.0628 35.1504 46.2452 34.9849 46.2784C34.0234 46.4717 33.2627 46.1953 32.5487 45.5809C31.2063 44.4256 30.09 42.8325 30.7608 41.0944C31.1103 40.1885 31.6789 39.1939 32.7133 38.9052C33.8177 38.597 35.3684 38.9046 36.4815 38.6942C36.8421 38.6259 37.236 38.5047 37.5 38.3036C37.7639 38.5047 38.1579 38.6259 38.5184 38.6942C39.6315 38.9046 41.1822 38.597 42.2867 38.9052C43.321 39.1939 43.8896 40.1885 44.2393 41.0944C44.9101 42.8325 43.7937 44.4256 42.4513 45.5809ZM53.4321 26.25C52.4633 28.5001 52.8374 31.3013 52.6581 33.6632C52.5125 35.583 52.0844 38.4605 50.2764 39.7003C49.3518 40.3344 47.6689 41.4 46.4608 41.1027C45.6291 40.8981 45.5404 38.6491 44.4475 37.8072C43.2079 36.8524 41.6599 36.4329 40.0992 36.4976C39.4257 36.5256 38.0637 36.519 37.5 37.0073C36.9363 36.519 35.5743 36.5256 34.9009 36.4976C33.34 36.4329 31.7921 36.8524 30.5524 37.8072C29.4596 38.6491 29.3709 40.8981 28.5393 41.1027C27.3312 41.4 25.6483 40.3344 24.7236 39.7003C22.9155 38.4605 22.4876 35.583 22.3417 33.6632C22.1625 31.3013 22.5367 28.5001 21.5679 26.25C21.0965 26.25 21.4074 30.5702 21.4074 30.5702V36.0228C21.4164 40.1178 24.1293 46.247 30.1443 48.5874C31.6154 49.1598 34.9475 50.0893 37.5 50.0893C40.0524 50.0893 43.3846 49.2483 44.8556 48.6759C50.8707 46.3355 53.5836 40.1178 53.5927 36.0228V30.5702C53.5927 30.5702 53.9034 26.25 53.4321 26.25Z" fill="white"/>
</mask>
<g mask="url(#mask4_8_124)">
<path fill-rule="evenodd" clip-rule="evenodd" d="M42.4513 45.5809C41.7372 46.1953 40.9765 46.4717 40.015 46.2784C39.8496 46.2452 39.1751 45.0628 37.5 45.0628C35.8248 45.0628 35.1504 46.2452 34.9849 46.2784C34.0234 46.4717 33.2627 46.1953 32.5487 45.5809C31.2063 44.4256 30.09 42.8325 30.7608 41.0944C31.1103 40.1885 31.6789 39.1939 32.7133 38.9052C33.8177 38.597 35.3684 38.9046 36.4815 38.6942C36.8421 38.6259 37.236 38.5047 37.5 38.3036C37.7639 38.5047 38.1579 38.6259 38.5184 38.6942C39.6315 38.9046 41.1822 38.597 42.2867 38.9052C43.321 39.1939 43.8896 40.1885 44.2393 41.0944C44.9101 42.8325 43.7937 44.4256 42.4513 45.5809ZM53.4321 26.25C52.4633 28.5001 52.8374 31.3013 52.6581 33.6632C52.5125 35.583 52.0844 38.4605 50.2764 39.7003C49.3518 40.3344 47.6689 41.4 46.4608 41.1027C45.6291 40.8981 45.5404 38.6491 44.4475 37.8072C43.2079 36.8524 41.6599 36.4329 40.0992 36.4976C39.4257 36.5256 38.0637 36.519 37.5 37.0073C36.9363 36.519 35.5743 36.5256 34.9009 36.4976C33.34 36.4329 31.7921 36.8524 30.5524 37.8072C29.4596 38.6491 29.3709 40.8981 28.5393 41.1027C27.3312 41.4 25.6483 40.3344 24.7236 39.7003C22.9155 38.4605 22.4876 35.583 22.3417 33.6632C22.1625 31.3013 22.5367 28.5001 21.5679 26.25C21.0965 26.25 21.4074 30.5702 21.4074 30.5702V36.0228C21.4164 40.1178 24.1293 46.247 30.1443 48.5874C31.6154 49.1598 34.9475 50.0893 37.5 50.0893C40.0524 50.0893 43.3846 49.2483 44.8556 48.6759C50.8707 46.3355 53.5836 40.1178 53.5927 36.0228V30.5702C53.5927 30.5702 53.9034 26.25 53.4321 26.25Z" fill="#331B0C"/>
<path d="M79.5455 19.2856H4.54547V84.6428H79.5455V19.2856Z" fill="#4A312C"/>
</g>
</g>
</svg>
