<svg aria-hidden="true" style="position: absolute; width: 0; height: 0; overflow: hidden;" version="1.1" xmlns="http://www.w3.org/2000/svg" xmlns:xlink="http://www.w3.org/1999/xlink">
<defs>
<symbol id="icon-html" viewBox="0 0 32 32">
<path fill="#e34f26" style="fill: var(--color1, #e34f26)" d="M4.438 28.75l-2.563-28.75h28.188l-2.563 28.75-11.563 3.25z"></path>
<path fill="#ef652a" style="fill: var(--color2, #ef652a)" d="M16 29.5l9.313-2.563 2.188-24.625h-11.5z"></path>
<path fill="#ebebeb" style="fill: var(--color3, #ebebeb)" d="M16 13h-4.688l-0.313-3.625h5v-3.5h-8.875l0.938 10.688h7.938zM15.938 22.188l-3.938-1.063-0.25-2.813h-3.5l0.438 5.563 7.25 2z"></path>
<path fill="#fff" style="fill: var(--color4, #fff)" d="M15.938 13v3.563h4.375l-0.438 4.563-3.938 1.063v3.688l7.25-2 1-10.875zM15.938 5.875v3.5h8.563l0.313-3.5z"></path>
</symbol>
<symbol id="icon-javascript" viewBox="0 0 32 32">
<path fill="#f7df1e" style="fill: var(--color5, #f7df1e)" d="M0 0h32v32h-32v-32z"></path>
<path fill="#000" style="fill: var(--color6, #000)" d="M20.25 23.125c0.625 1.063 1.5 1.813 2.938 1.813 1.25 0 2.063-0.625 2.063-1.5 0-1-0.813-1.375-2.188-2l-0.75-0.313c-2.188-0.938-3.625-2.063-3.625-4.5 0-2.25 1.688-4 4.375-4 1.938 0 3.313 0.688 4.25 2.438l-2.313 1.5c-0.5-0.938-1.063-1.313-1.938-1.313s-1.438 0.563-1.438 1.313c0 0.875 0.563 1.25 1.875 1.813l0.75 0.313c2.563 1.125 4 2.188 4 4.75 0 2.688-2.125 4.188-5 4.188-2.813 0-4.625-1.313-5.5-3.063zM9.625 23.375c0.5 0.813 0.875 1.563 1.938 1.563 1 0 1.625-0.375 1.625-1.875v-10.375h3v10.25c0 3.125-1.813 4.5-4.5 4.5-2.438 0-3.813-1.25-4.5-2.75z"></path>
</symbol>
<symbol id="icon-css3" viewBox="0 0 32 32">
<path fill="#1572b6" style="fill: var(--color7, #1572b6)" d="M4.704 28.531l-2.514-28.193h27.62l-2.516 28.189-11.311 3.136-11.28-3.131z"></path>
<path fill="#33a9dc" style="fill: var(--color8, #33a9dc)" d="M16 29.265l9.14-2.534 2.15-24.088h-11.29v26.622z"></path>
<path fill="#fff" style="fill: var(--color4, #fff)" d="M16 12.857h4.575l0.316-3.541h-4.892v-3.458h8.671l-0.083 0.928-0.85 9.529h-7.738v-3.458z"></path>
<path fill="#ebebeb" style="fill: var(--color3, #ebebeb)" d="M16.021 21.837l-0.015 0.005-3.851-1.040-0.246-2.758h-3.47l0.484 5.429 7.083 1.966 0.016-0.005v-3.598z"></path>
<path fill="#fff" style="fill: var(--color4, #fff)" d="M20.282 16.169l-0.416 4.631-3.857 1.041v3.598l7.088-1.965 0.052-0.584 0.602-6.72h-3.469z"></path>
<path fill="#ebebeb" style="fill: var(--color3, #ebebeb)" d="M16.012 5.859v3.458h-8.352l-0.069-0.777-0.157-1.753-0.083-0.928h8.662zM16 12.858v3.458h-3.802l-0.069-0.777-0.158-1.753-0.082-0.928h4.112z"></path>
</symbol>
<symbol id="icon-react" viewBox="0 0 32 32">
<path fill="#61dafb" style="fill: var(--color1, #61dafb)" d="M18.325 11.875c0 1.284-1.041 2.325-2.325 2.325s-2.325-1.041-2.325-2.325c0-1.284 1.041-2.325 2.325-2.325s2.325 1.041 2.325 2.325z"></path>
<path fill="#61dafb" style="fill: var(--color1, #61dafb)" d="M16 20.425c1.825 1.775 3.625 2.825 5.075 2.825 0.475 0 0.925-0.1 1.3-0.325 1.3-0.75 1.775-2.625 1.325-5.3-0.075-0.475-0.175-0.95-0.3-1.45 0.5-0.15 0.95-0.3 1.4-0.45 2.525-0.975 3.925-2.325 3.925-3.8 0-1.5-1.4-2.85-3.925-3.8-0.45-0.175-0.9-0.325-1.4-0.45 0.125-0.5 0.225-0.975 0.3-1.45 0.425-2.725-0.050-4.625-1.35-5.375-0.375-0.225-0.825-0.325-1.3-0.325-1.425 0-3.25 1.050-5.075 2.825-1.8-1.775-3.6-2.825-5.050-2.825-0.475 0-0.925 0.1-1.3 0.325-1.3 0.75-1.775 2.625-1.325 5.3 0.075 0.475 0.175 0.95 0.3 1.45-0.5 0.15-0.95 0.3-1.4 0.45-2.525 0.975-3.925 2.325-3.925 3.8 0 1.5 1.4 2.85 3.925 3.8 0.45 0.175 0.9 0.325 1.4 0.45-0.125 0.5-0.225 0.975-0.3 1.45-0.425 2.675 0.050 4.575 1.325 5.3 0.375 0.225 0.825 0.325 1.3 0.325 1.45 0.050 3.25-1 5.075-2.75zM14.6 17.050c0.45 0.025 0.925 0.025 1.4 0.025s0.95 0 1.4-0.025c-0.45 0.6-0.925 1.15-1.4 1.675-0.475-0.525-0.95-1.075-1.4-1.675zM11.5 14.475c0.25 0.425 0.475 0.825 0.75 1.225-0.775-0.1-1.5-0.225-2.2-0.375 0.225-0.675 0.475-1.375 0.775-2.075 0.2 0.4 0.425 0.825 0.675 1.225zM10.050 8.45c0.7-0.15 1.425-0.275 2.2-0.375-0.25 0.4-0.5 0.8-0.75 1.225s-0.475 0.825-0.675 1.25c-0.325-0.725-0.575-1.425-0.775-2.1zM11.425 11.875c0.325-0.675 0.675-1.35 1.075-2.025 0.375-0.65 0.8-1.3 1.225-1.95 0.75-0.050 1.5-0.075 2.275-0.075 0.8 0 1.55 0.025 2.275 0.075 0.45 0.65 0.85 1.3 1.225 1.95 0.4 0.675 0.75 1.35 1.075 2.025-0.325 0.675-0.675 1.35-1.075 2.025-0.375 0.65-0.8 1.3-1.225 1.95-0.75 0.050-1.5 0.075-2.275 0.075-0.8 0-1.55-0.025-2.275-0.075-0.45-0.65-0.85-1.3-1.225-1.95-0.4-0.675-0.75-1.35-1.075-2.025zM21.2 10.525l-0.675-1.25c-0.25-0.425-0.475-0.825-0.75-1.225 0.775 0.1 1.5 0.225 2.2 0.375-0.225 0.7-0.475 1.4-0.775 2.1zM21.2 13.225c0.3 0.7 0.55 1.4 0.775 2.075-0.7 0.15-1.425 0.275-2.2 0.375 0.25-0.4 0.5-0.8 0.75-1.225 0.225-0.375 0.45-0.8 0.675-1.225zM21.775 21.9c-0.2 0.125-0.45 0.175-0.725 0.175-1.225 0-2.75-1-4.25-2.5 0.725-0.775 1.425-1.65 2.125-2.625 1.175-0.1 2.3-0.275 3.35-0.525 0.125 0.45 0.2 0.9 0.275 1.35 0.35 2.125 0.075 3.65-0.775 4.125zM23.075 8.725c2.8 0.8 4.475 2.025 4.475 3.15 0 0.975-1.15 1.95-3.175 2.725-0.4 0.15-0.85 0.3-1.3 0.425-0.325-1.025-0.725-2.075-1.225-3.15 0.5-1.075 0.925-2.125 1.225-3.15zM21.075 1.675c0.275 0 0.5 0.050 0.725 0.175 0.825 0.475 1.125 1.975 0.775 4.125-0.075 0.425-0.175 0.875-0.275 1.35-1.050-0.225-2.175-0.4-3.35-0.525-0.675-0.975-1.4-1.85-2.125-2.625 1.5-1.475 3.025-2.5 4.25-2.5zM17.4 6.7c-0.45-0.025-0.925-0.025-1.4-0.025s-0.95 0-1.4 0.025c0.45-0.6 0.925-1.15 1.4-1.675 0.475 0.525 0.95 1.1 1.4 1.675zM10.225 1.85c0.2-0.125 0.45-0.175 0.725-0.175 1.225 0 2.75 1 4.25 2.5-0.725 0.775-1.425 1.65-2.125 2.625-1.175 0.1-2.3 0.275-3.35 0.525-0.125-0.45-0.2-0.9-0.275-1.35-0.35-2.125-0.075-3.625 0.775-4.125zM8.925 15.025c-2.8-0.8-4.475-2.025-4.475-3.15 0-0.975 1.15-1.95 3.175-2.725 0.4-0.15 0.85-0.3 1.3-0.425 0.325 1.025 0.725 2.075 1.225 3.15-0.5 1.075-0.925 2.15-1.225 3.15zM9.45 17.775c0.075-0.425 0.175-0.875 0.275-1.35 1.050 0.225 2.175 0.4 3.35 0.525 0.675 0.975 1.4 1.85 2.125 2.625-1.5 1.475-3.025 2.5-4.25 2.5-0.275 0-0.5-0.050-0.725-0.175-0.85-0.475-1.125-2-0.775-4.125zM8.4 28.075c0.55-0.675 0.575-1.425 0.275-2.175s-0.925-1.1-1.7-1.125c-0.925-0.025-1.875 0-2.8 0h-0.175v6.475h0.75v-2.45h1.175c0.15 0 0.275 0.050 0.35 0.175l1.5 2.325c0.025 0.050 0.1 0.125 0.15 0.125h0.975c-0.6-0.925-1.175-1.8-1.775-2.7 0.525-0.075 0.975-0.25 1.275-0.65zM4.75 28.025v-2.475h0.275c0.575 0 1.175-0.025 1.75 0.025 0.675 0.025 1.15 0.55 1.15 1.225s-0.55 1.2-1.225 1.225c-0.6 0.025-1.2 0-1.95 0zM14.425 28.35c-0.4-1.75-2-2.2-3.225-1.65-0.95 0.425-1.375 1.25-1.4 2.275-0.025 0.775 0.2 1.475 0.8 2 0.675 0.6 1.5 0.675 2.35 0.525 0.475-0.1 0.9-0.325 1.225-0.675-0.125-0.175-0.25-0.35-0.375-0.5-0.7 0.6-1.475 0.8-2.325 0.4-0.55-0.275-0.825-0.95-0.875-1.45h3.875v-0.325c0.025-0.225 0-0.425-0.050-0.6zM10.65 28.75c-0.075-0.75 0.675-1.55 1.5-1.55 0.95-0.025 1.55 0.55 1.575 1.55h-3.075zM18.325 26.575c-0.375-0.075-0.775-0.1-1.15-0.075-0.6 0.050-1.125 0.325-1.55 0.775 0.125 0.175 0.225 0.35 0.375 0.55 0.050-0.050 0.1-0.1 0.15-0.125 0.4-0.375 0.875-0.575 1.45-0.525 0.45 0.025 0.875 0.175 1 0.625 0.1 0.35 0.075 0.725 0.1 1.1-0.075 0-0.1-0.025-0.125-0.050-0.6-0.5-1.275-0.6-2-0.425-0.675 0.175-1.1 0.7-1.15 1.375-0.050 0.775 0.3 1.35 0.975 1.625 0.425 0.175 0.9 0.175 1.35 0.075 0.35-0.075 0.5-0.275 1-0.55v0.325h0.7c0-1 0.025-2.225 0-3.375 0-0.725-0.425-1.175-1.125-1.325zM18.675 29.725c-0.025 0.075 0 0.15 0 0.225 0 0.525-0.125 0.7-0.625 0.9-0.35 0.125-0.725 0.175-1.1 0.050-0.425-0.125-0.725-0.5-0.725-0.925-0.025-0.425 0.25-0.85 0.675-0.975 0.575-0.2 1.1-0.075 1.575 0.275 0.15 0.125 0.25 0.25 0.2 0.45zM22.575 27.25c0.65-0.2 1.25-0.075 1.7 0.475l0.075 0.050c0.175-0.15 0.325-0.3 0.525-0.475-0.075-0.075-0.1-0.125-0.15-0.2-0.725-0.775-2.15-0.875-3.025-0.25-1.225 0.9-1.2 2.65-0.6 3.575 0.575 0.875 1.4 1.175 2.375 1.050 0.575-0.075 1.050-0.35 1.425-0.825-0.175-0.15-0.35-0.3-0.525-0.475-0.050 0.050-0.075 0.075-0.1 0.125-0.675 0.75-1.8 0.675-2.4-0.125-0.35-0.475-0.425-1.025-0.325-1.575 0.050-0.625 0.375-1.125 1.025-1.35zM27.775 30.65c-0.050 0.025-0.075 0.050-0.075 0.050-0.2 0.15-0.4 0.175-0.625 0.1-0.225-0.1-0.25-0.3-0.275-0.5v-2.85c0-0.050 0 0.050 0.025-0.2h0.95v-0.75h-1v-1.25h-0.75v1.35h-0.65c-0.050 0-0.125 0.050-0.125 0.1-0.025 0.175 0 0.3 0 0.55h0.8v3.2c0 0.4 0.1 0.75 0.45 0.95 0.375 0.225 1.1 0.175 1.425-0.1 0.050-0.025 0.075-0.125 0.075-0.15-0.075-0.15-0.15-0.325-0.225-0.5z"></path>
</symbol>
<symbol id="icon-github" viewBox="0 0 32 32">
<path d="M16 0.395c-8.836 0-16 7.163-16 16 0 7.069 4.585 13.067 10.942 15.182 0.8 0.148 1.094-0.347 1.094-0.77 0-0.381-0.015-1.642-0.022-2.979-4.452 0.968-5.391-1.888-5.391-1.888-0.728-1.849-1.776-2.341-1.776-2.341-1.452-0.993 0.11-0.973 0.11-0.973 1.606 0.113 2.452 1.649 2.452 1.649 1.427 2.446 3.743 1.739 4.656 1.33 0.143-1.034 0.558-1.74 1.016-2.14-3.554-0.404-7.29-1.777-7.29-7.907 0-1.747 0.625-3.174 1.649-4.295-0.166-0.403-0.714-2.030 0.155-4.234 0 0 1.344-0.43 4.401 1.64 1.276-0.355 2.645-0.532 4.005-0.539 1.359 0.006 2.729 0.184 4.008 0.539 3.054-2.070 4.395-1.64 4.395-1.64 0.871 2.204 0.323 3.831 0.157 4.234 1.026 1.12 1.647 2.548 1.647 4.295 0 6.145-3.743 7.498-7.306 7.895 0.574 0.497 1.085 1.47 1.085 2.963 0 2.141-0.019 3.864-0.019 4.391 0 0.426 0.288 0.925 1.099 0.768 6.354-2.118 10.933-8.113 10.933-15.18 0-8.837-7.164-16-16-16z"></path>
</symbol>
<symbol id="icon-phone" viewBox="0 0 32 32">
<path d="M22 20c-2 2-2 4-4 4s-4-2-6-4-4-4-4-6 2-2 4-4-4-8-6-8-6 6-6 6c0 4 4.109 12.109 8 16s12 8 16 8c0 0 6-4 6-6s-6-8-8-6z"></path>
</symbol>
<symbol id="icon-envelop" viewBox="0 0 32 32">
<path d="M25.333 5.333h-18.667c-2.209 0-4 1.791-4 4v0 13.333c0 2.209 1.791 4 4 4v0h18.667c2.209 0 4-1.791 4-4v0-13.333c0-2.209-1.791-4-4-4v0zM24.44 8l-8.44 6.333-8.44-6.333zM25.333 24h-18.667c-0.736 0-1.333-0.597-1.333-1.333v0-13l9.867 7.4c0.22 0.166 0.498 0.267 0.8 0.267v0c0.302 0 0.58-0.1 0.803-0.269l-0.003 0.002 9.867-7.4v13c0 0.736-0.597 1.333-1.333 1.333v0z"></path>
</symbol>
</defs>
</svg>
